<svg width="180" height="173" viewBox="0 0 180 173" fill="none" xmlns="http://www.w3.org/2000/svg">
<g filter="url(#filter0_d_684_2060)">
<mask id="path-1-outside-1_684_2060" maskUnits="userSpaceOnUse" x="-1.30288" y="-1.38458" width="182.927" height="175.842" fill="black">
<rect fill="white" x="-1.30288" y="-1.38458" width="182.927" height="175.842"/>
<path d="M113.267 143.498C126.987 138.325 138.417 128.739 145.608 116.374C152.799 104.009 155.307 89.6301 152.704 75.6872C150.101 61.7444 142.549 49.1003 131.334 39.9094C120.118 30.7184 105.935 25.5492 91.1985 25.2826C76.4625 25.0161 62.0861 29.6685 50.5191 38.4473C38.952 47.2261 30.9099 59.5881 27.763 73.4269C24.6161 87.2657 26.5591 101.725 33.261 114.341C39.9629 126.958 51.009 136.95 64.5171 142.616L65.3986 140.675C52.3576 135.205 41.6936 125.558 35.2236 113.378C28.7535 101.198 26.8777 87.2393 29.9157 73.8791C32.9538 60.519 40.7177 48.5846 51.8847 40.1095C63.0517 31.6343 76.9307 27.1428 91.157 27.4001C105.383 27.6575 119.077 32.6479 129.904 41.5209C140.731 50.394 148.022 62.6007 150.535 76.0613C153.048 89.5218 150.627 103.403 143.684 115.341C136.742 127.278 125.708 136.532 112.462 141.527L113.267 143.498Z"/>
</mask>
<path d="M113.267 143.498C126.987 138.325 138.417 128.739 145.608 116.374C152.799 104.009 155.307 89.6301 152.704 75.6872C150.101 61.7444 142.549 49.1003 131.334 39.9094C120.118 30.7184 105.935 25.5492 91.1985 25.2826C76.4625 25.0161 62.0861 29.6685 50.5191 38.4473C38.952 47.2261 30.9099 59.5881 27.763 73.4269C24.6161 87.2657 26.5591 101.725 33.261 114.341C39.9629 126.958 51.009 136.95 64.5171 142.616L65.3986 140.675C52.3576 135.205 41.6936 125.558 35.2236 113.378C28.7535 101.198 26.8777 87.2393 29.9157 73.8791C32.9538 60.519 40.7177 48.5846 51.8847 40.1095C63.0517 31.6343 76.9307 27.1428 91.157 27.4001C105.383 27.6575 119.077 32.6479 129.904 41.5209C140.731 50.394 148.022 62.6007 150.535 76.0613C153.048 89.5218 150.627 103.403 143.684 115.341C136.742 127.278 125.708 136.532 112.462 141.527L113.267 143.498Z" fill="#364D6D"/>
<path d="M113.267 143.498C126.987 138.325 138.417 128.739 145.608 116.374C152.799 104.009 155.307 89.6301 152.704 75.6872C150.101 61.7444 142.549 49.1003 131.334 39.9094C120.118 30.7184 105.935 25.5492 91.1985 25.2826C76.4625 25.0161 62.0861 29.6685 50.5191 38.4473C38.952 47.2261 30.9099 59.5881 27.763 73.4269C24.6161 87.2657 26.5591 101.725 33.261 114.341C39.9629 126.958 51.009 136.95 64.5171 142.616L65.3986 140.675C52.3576 135.205 41.6936 125.558 35.2236 113.378C28.7535 101.198 26.8777 87.2393 29.9157 73.8791C32.9538 60.519 40.7177 48.5846 51.8847 40.1095C63.0517 31.6343 76.9307 27.1428 91.157 27.4001C105.383 27.6575 119.077 32.6479 129.904 41.5209C140.731 50.394 148.022 62.6007 150.535 76.0613C153.048 89.5218 150.627 103.403 143.684 115.341C136.742 127.278 125.708 136.532 112.462 141.527L113.267 143.498Z" stroke="#2F88FF" mask="url(#path-1-outside-1_684_2060)"/>
</g>
<g filter="url(#filter1_d_684_2060)">
<path d="M69.6348 149.818V138.155H73.5195V149.818H69.6348ZM74.1348 140.484V138.155H78.5732L80.9111 140.484V143.982L79.1182 145.775L78.9951 145.529L75.3477 146.012L75.4883 146.32H74.1348V144.061H77.0527V140.484H74.1348ZM81.3066 149.818H77.1582L75.4883 146.32H78.5732L79.1182 145.775L81.3066 149.818ZM82.6953 149.818V138.155H86.5801V149.818H82.6953ZM87.1953 140.484V138.155H91.6338L93.9717 140.484V143.982L92.1787 145.775L92.0557 145.529L88.4082 146.012L88.5488 146.32H87.1953V144.061H90.1133V140.484H87.1953ZM94.3672 149.818H90.2188L88.5488 146.32H91.6338L92.1787 145.775L94.3672 149.818ZM99.4648 149.818H97.918L95.5801 147.489V140.484L97.918 138.155H99.4648V149.818ZM100.08 140.484V138.155H104.22L106.549 140.484V142.831H102.664V140.484H100.08ZM100.08 149.818V147.489H102.664V145.784H106.549V147.489L104.22 149.818H100.08Z" fill="#364D6D"/>
<path d="M69.6348 149.818H69.3848V150.068H69.6348V149.818ZM69.6348 138.155V137.905H69.3848V138.155H69.6348ZM73.5195 138.155H73.7695V137.905H73.5195V138.155ZM73.5195 149.818V150.068H73.7695V149.818H73.5195ZM74.1348 140.484H73.8848V140.734H74.1348V140.484ZM74.1348 138.155V137.905H73.8848V138.155H74.1348ZM78.5732 138.155L78.7497 137.978L78.6765 137.905H78.5732V138.155ZM80.9111 140.484H81.1611V140.38L81.0876 140.307L80.9111 140.484ZM80.9111 143.982L81.0879 144.159L81.1611 144.085V143.982H80.9111ZM79.1182 145.775L78.8946 145.887L79.0497 146.197L79.2949 145.952L79.1182 145.775ZM78.9951 145.529L79.2187 145.417L79.139 145.258L78.9623 145.281L78.9951 145.529ZM75.3477 146.012L75.3148 145.764L74.9798 145.809L75.1203 146.116L75.3477 146.012ZM75.4883 146.32V146.57H75.8775L75.7157 146.216L75.4883 146.32ZM74.1348 146.32H73.8848V146.57H74.1348V146.32ZM74.1348 144.061V143.811H73.8848V144.061H74.1348ZM77.0527 144.061V144.311H77.3027V144.061H77.0527ZM77.0527 140.484H77.3027V140.234H77.0527V140.484ZM81.3066 149.818V150.068H81.7262L81.5265 149.699L81.3066 149.818ZM77.1582 149.818L76.9326 149.926L77.0005 150.068H77.1582V149.818ZM75.4883 146.32V146.07H75.0919L75.2627 146.428L75.4883 146.32ZM78.5732 146.32V146.57H78.6768L78.75 146.497L78.5732 146.32ZM79.1182 145.775L79.338 145.656L79.1784 145.361L78.9414 145.598L79.1182 145.775ZM69.8848 149.818V138.155H69.3848V149.818H69.8848ZM69.6348 138.405H73.5195V137.905H69.6348V138.405ZM73.2695 138.155V149.818H73.7695V138.155H73.2695ZM73.5195 149.568H69.6348V150.068H73.5195V149.568ZM74.3848 140.484V138.155H73.8848V140.484H74.3848ZM74.1348 138.405H78.5732V137.905H74.1348V138.405ZM78.3968 138.332L80.7347 140.661L81.0876 140.307L78.7497 137.978L78.3968 138.332ZM80.6611 140.484V143.982H81.1611V140.484H80.6611ZM80.7344 143.805L78.9414 145.598L79.2949 145.952L81.0879 144.159L80.7344 143.805ZM79.3418 145.663L79.2187 145.417L78.7715 145.641L78.8946 145.887L79.3418 145.663ZM78.9623 145.281L75.3148 145.764L75.3805 146.26L79.028 145.777L78.9623 145.281ZM75.1203 146.116L75.2609 146.424L75.7157 146.216L75.575 145.908L75.1203 146.116ZM75.4883 146.07H74.1348V146.57H75.4883V146.07ZM74.3848 146.32V144.061H73.8848V146.32H74.3848ZM74.1348 144.311H77.0527V143.811H74.1348V144.311ZM77.3027 144.061V140.484H76.8027V144.061H77.3027ZM77.0527 140.234H74.1348V140.734H77.0527V140.234ZM81.3066 149.568H77.1582V150.068H81.3066V149.568ZM77.3838 149.71L75.7139 146.212L75.2627 146.428L76.9326 149.926L77.3838 149.71ZM75.4883 146.57H78.5732V146.07H75.4883V146.57ZM78.75 146.497L79.2949 145.952L78.9414 145.598L78.3965 146.143L78.75 146.497ZM78.8983 145.894L81.0868 149.937L81.5265 149.699L79.338 145.656L78.8983 145.894ZM82.6953 149.818H82.4453V150.068H82.6953V149.818ZM82.6953 138.155V137.905H82.4453V138.155H82.6953ZM86.5801 138.155H86.8301V137.905H86.5801V138.155ZM86.5801 149.818V150.068H86.8301V149.818H86.5801ZM87.1953 140.484H86.9453V140.734H87.1953V140.484ZM87.1953 138.155V137.905H86.9453V138.155H87.1953ZM91.6338 138.155L91.8102 137.978L91.7371 137.905H91.6338V138.155ZM93.9717 140.484H94.2217V140.38L94.1481 140.307L93.9717 140.484ZM93.9717 143.982L94.1485 144.159L94.2217 144.085V143.982H93.9717ZM92.1787 145.775L91.9551 145.887L92.1102 146.197L92.3555 145.952L92.1787 145.775ZM92.0557 145.529L92.2793 145.417L92.1995 145.258L92.0228 145.281L92.0557 145.529ZM88.4082 146.012L88.3754 145.764L88.0403 145.809L88.1808 146.116L88.4082 146.012ZM88.5488 146.32V146.57H88.938L88.7762 146.216L88.5488 146.32ZM87.1953 146.32H86.9453V146.57H87.1953V146.32ZM87.1953 144.061V143.811H86.9453V144.061H87.1953ZM90.1133 144.061V144.311H90.3633V144.061H90.1133ZM90.1133 140.484H90.3633V140.234H90.1133V140.484ZM94.3672 149.818V150.068H94.7868L94.587 149.699L94.3672 149.818ZM90.2188 149.818L89.9931 149.926L90.0611 150.068H90.2188V149.818ZM88.5488 146.32V146.07H88.1525L88.3232 146.428L88.5488 146.32ZM91.6338 146.32V146.57H91.7373L91.8106 146.497L91.6338 146.32ZM92.1787 145.775L92.3986 145.656L92.239 145.361L92.0019 145.598L92.1787 145.775ZM82.9453 149.818V138.155H82.4453V149.818H82.9453ZM82.6953 138.405H86.5801V137.905H82.6953V138.405ZM86.3301 138.155V149.818H86.8301V138.155H86.3301ZM86.5801 149.568H82.6953V150.068H86.5801V149.568ZM87.4453 140.484V138.155H86.9453V140.484H87.4453ZM87.1953 138.405H91.6338V137.905H87.1953V138.405ZM91.4573 138.332L93.7952 140.661L94.1481 140.307L91.8102 137.978L91.4573 138.332ZM93.7217 140.484V143.982H94.2217V140.484H93.7217ZM93.7949 143.805L92.0019 145.598L92.3555 145.952L94.1485 144.159L93.7949 143.805ZM92.4023 145.663L92.2793 145.417L91.8321 145.641L91.9551 145.887L92.4023 145.663ZM92.0228 145.281L88.3754 145.764L88.441 146.26L92.0885 145.777L92.0228 145.281ZM88.1808 146.116L88.3215 146.424L88.7762 146.216L88.6356 145.908L88.1808 146.116ZM88.5488 146.07H87.1953V146.57H88.5488V146.07ZM87.4453 146.32V144.061H86.9453V146.32H87.4453ZM87.1953 144.311H90.1133V143.811H87.1953V144.311ZM90.3633 144.061V140.484H89.8633V144.061H90.3633ZM90.1133 140.234H87.1953V140.734H90.1133V140.234ZM94.3672 149.568H90.2188V150.068H94.3672V149.568ZM90.4444 149.71L88.7744 146.212L88.3232 146.428L89.9931 149.926L90.4444 149.71ZM88.5488 146.57H91.6338V146.07H88.5488V146.57ZM91.8106 146.497L92.3555 145.952L92.0019 145.598L91.457 146.143L91.8106 146.497ZM91.9589 145.894L94.1473 149.937L94.587 149.699L92.3986 145.656L91.9589 145.894ZM99.4648 149.818V150.068H99.7148V149.818H99.4648ZM97.918 149.818L97.7415 149.995L97.8147 150.068H97.918V149.818ZM95.5801 147.489H95.3301V147.593L95.4036 147.666L95.5801 147.489ZM95.5801 140.484L95.4036 140.307L95.3301 140.38V140.484H95.5801ZM97.918 138.155V137.905H97.8147L97.7415 137.978L97.918 138.155ZM99.4648 138.155H99.7148V137.905H99.4648V138.155ZM100.08 140.484H99.8301V140.734H100.08V140.484ZM100.08 138.155V137.905H99.8301V138.155H100.08ZM104.22 138.155L104.397 137.978L104.323 137.905H104.22V138.155ZM106.549 140.484H106.799V140.38L106.726 140.307L106.549 140.484ZM106.549 142.831V143.081H106.799V142.831H106.549ZM102.664 142.831H102.414V143.081H102.664V142.831ZM102.664 140.484H102.914V140.234H102.664V140.484ZM100.08 149.818H99.8301V150.068H100.08V149.818ZM100.08 147.489V147.239H99.8301V147.489H100.08ZM102.664 147.489V147.739H102.914V147.489H102.664ZM102.664 145.784V145.534H102.414V145.784H102.664ZM106.549 145.784H106.799V145.534H106.549V145.784ZM106.549 147.489L106.726 147.666L106.799 147.592V147.489H106.549ZM104.22 149.818V150.068H104.323L104.397 149.995L104.22 149.818ZM99.4648 149.568H97.918V150.068H99.4648V149.568ZM98.0944 149.641L95.7565 147.312L95.4036 147.666L97.7415 149.995L98.0944 149.641ZM95.8301 147.489V140.484H95.3301V147.489H95.8301ZM95.7565 140.661L98.0944 138.332L97.7415 137.978L95.4036 140.307L95.7565 140.661ZM97.918 138.405H99.4648V137.905H97.918V138.405ZM99.2148 138.155V149.818H99.7148V138.155H99.2148ZM100.33 140.484V138.155H99.8301V140.484H100.33ZM100.08 138.405H104.22V137.905H100.08V138.405ZM104.043 138.332L106.372 140.661L106.726 140.307L104.397 137.978L104.043 138.332ZM106.299 140.484V142.831H106.799V140.484H106.299ZM106.549 142.581H102.664V143.081H106.549V142.581ZM102.914 142.831V140.484H102.414V142.831H102.914ZM102.664 140.234H100.08V140.734H102.664V140.234ZM100.33 149.818V147.489H99.8301V149.818H100.33ZM100.08 147.739H102.664V147.239H100.08V147.739ZM102.914 147.489V145.784H102.414V147.489H102.914ZM102.664 146.034H106.549V145.534H102.664V146.034ZM106.299 145.784V147.489H106.799V145.784H106.299ZM106.372 147.312L104.043 149.641L104.397 149.995L106.726 147.666L106.372 147.312ZM104.22 149.568H100.08V150.068H104.22V149.568Z" fill="#2F88FF"/>
</g>
<g filter="url(#filter2_d_684_2060)">
<path fill-rule="evenodd" clip-rule="evenodd" d="M115.265 94.6298C119.09 100.051 124.858 102.771 132.103 98.9857L132.116 99.0055L133.826 98.0049L133.818 97.9919C142.998 92.2319 147.609 82.7881 143.771 76.7677C139.933 70.7474 129.057 70.3632 119.516 75.5556L119.507 75.5426L117.797 76.5432L117.81 76.5629C110.985 81.0084 110.721 87.1694 114.008 92.905C114.889 94.2873 115.207 94.653 115.191 94.6735L115.265 94.6298ZM134.176 76.4505L133.074 74.7226L134.316 73.9962C134.547 74.0128 134.775 74.0339 135 74.0594L135.886 75.4499L134.176 76.4505ZM130.755 78.4517L129.653 76.7238L131.364 75.7232L132.465 77.4511L130.755 78.4517ZM128.219 74.4732L128.552 74.9959L129.972 74.165C129.394 74.2454 128.808 74.3482 128.219 74.4732ZM127.334 80.4529L126.233 78.725L127.943 77.7244L129.044 79.4523L127.334 80.4529ZM124.26 75.6306L125.131 76.9971L126.841 75.9965L126.196 74.9847C125.551 75.1743 124.905 75.3897 124.26 75.6306ZM118.782 85.4559L117.681 83.728L115.97 84.7286L117.072 86.4565L118.782 85.4559ZM115.939 80.9963L116.579 82.0001L114.81 83.0351L114.751 83.0695C115.034 82.3588 115.426 81.6654 115.939 80.9963ZM122.203 83.4547L121.101 81.7268L119.391 82.7274L120.492 84.4553L122.203 83.4547ZM118.913 78.2945L120 79.9989L118.29 80.9995L117.336 79.5041C117.804 79.0872 118.329 78.6834 118.913 78.2945ZM125.624 81.4535L124.522 79.7256L122.812 80.7262L123.913 82.4541L125.624 81.4535ZM122.402 76.3993L123.421 77.9977L121.71 78.9983L120.618 77.2848C121.206 76.9673 121.802 76.6721 122.402 76.3993ZM136.378 79.9062L135.277 78.1783L136.987 77.1777L138.089 78.9056L136.378 79.9062ZM141.438 76.9462C140.962 76.4116 140.396 75.9495 139.754 75.5592L138.698 76.1771L139.799 77.905L141.438 76.9462ZM132.958 81.9074L131.856 80.1795L133.567 79.1789L134.668 80.9068L132.958 81.9074ZM129.537 83.9086L128.435 82.1807L130.146 81.1801L131.247 82.908L129.537 83.9086ZM120.985 88.9116L119.884 87.1837L118.173 88.1843L119.275 89.9122L120.985 88.9116ZM114.193 85.6243C114.15 86.4183 114.217 87.2229 114.382 88.0297L115.361 87.4571L114.193 85.6243ZM115.878 91.899C115.535 91.2868 115.237 90.6678 114.991 90.0459L116.463 89.1849L117.564 90.9128L115.878 91.899ZM124.406 86.9104L123.304 85.1825L121.594 86.1831L122.695 87.911L124.406 86.9104ZM127.827 84.9092L126.725 83.1813L125.015 84.1819L126.116 85.9098L127.827 84.9092ZM139.683 85.0898L141.393 84.0892L142.28 85.4797C142.201 85.6831 142.116 85.887 142.026 86.0912L140.784 86.8177L139.683 85.0898ZM137.48 81.6341L139.19 80.6335L140.292 82.3613L138.581 83.3619L137.48 81.6341ZM142.54 78.6741L140.901 79.6329L142.002 81.3607L143.058 80.7428C142.989 80.0173 142.819 79.3238 142.54 78.6741ZM136.262 87.091L137.972 86.0904L139.074 87.8183L137.363 88.8189L136.262 87.091ZM134.059 83.6353L135.77 82.6347L136.871 84.3625L135.161 85.3631L134.059 83.6353ZM132.841 89.0922L134.552 88.0916L135.653 89.8195L133.943 90.8201L132.841 89.0922ZM135.915 93.9145C136.434 93.475 136.929 93.0223 137.4 92.5592L136.755 91.5473L135.044 92.5479L135.915 93.9145ZM139.885 89.7158C139.546 90.172 139.184 90.6239 138.798 91.0695L138.465 90.5467L139.885 89.7158ZM130.638 85.6365L132.349 84.6359L133.45 86.3637L131.74 87.3643L130.638 85.6365ZM124.289 94.0952L122.579 95.0958L123.68 96.8237L125.391 95.8231L124.289 94.0952ZM119.89 96.669L120.869 96.0964L122.037 97.9292C121.28 97.6035 120.563 97.1784 119.89 96.669ZM122.086 90.6395L120.376 91.6401L121.477 93.3679L123.188 92.3673L122.086 90.6395ZM116.98 93.6269L118.666 92.6407L119.767 94.3685L118.295 95.2295C117.83 94.7356 117.391 94.1991 116.98 93.6269ZM127.71 92.094L126 93.0946L127.101 94.8225L128.812 93.8219L127.71 92.094ZM130.999 97.2541C130.371 97.5749 129.757 97.8376 129.156 98.0458L128.203 96.5503L129.913 95.5497L130.999 97.2541ZM124.664 98.6203C125.453 98.7041 126.276 98.6864 127.132 98.5548L126.492 97.5509L124.664 98.6203ZM125.507 88.6383L123.797 89.6389L124.898 91.3667L126.609 90.3661L125.507 88.6383ZM131.131 90.0928L129.42 91.0934L130.522 92.8213L132.232 91.8207L131.131 90.0928ZM134.353 95.147C133.825 95.5337 133.279 95.9064 132.716 96.2626L131.623 94.5491L133.334 93.5485L134.353 95.147ZM128.928 86.6371L127.218 87.6377L128.319 89.3655L130.029 88.3649L128.928 86.6371Z" fill="black"/>
<path d="M36.7424 68.3274L36.7414 68.3285C36.4043 68.6533 36.1779 69.0446 36.0637 69.4982L36.8194 70.1115L36.9294 69.847C37.0739 69.4996 37.2859 69.1669 37.5867 68.8753L37.5872 68.8749C37.8883 68.5838 38.2389 68.3737 38.6037 68.2214L38.7989 68.1399L38.1208 67.5895L38.1047 67.5936L36.7424 68.3274ZM36.7424 68.3274C37.0944 67.986 37.5489 67.7367 38.1037 67.5939L36.7424 68.3274ZM47.1674 76.0667C47.379 76.2388 47.6081 76.3838 47.849 76.5019L46.9598 77.3614C46.7891 77.1206 46.5816 76.8993 46.3411 76.7041L38.0332 69.9611C38.1128 69.8365 38.2077 69.7185 38.3204 69.6091M47.1674 76.0667L47.4702 75.6935L47.1678 76.067L47.1674 76.0667ZM47.1674 76.0667L38.7898 69.2676M38.7898 69.2676C38.8747 69.2211 38.9633 69.1789 39.0553 69.1404L38.8295 68.6809L38.5271 69.0544L38.7898 69.2676ZM38.7898 69.2676C38.6163 69.3628 38.4586 69.4756 38.3204 69.6091M38.3204 69.6091C38.3206 69.609 38.3207 69.6089 38.3208 69.6087L37.9538 69.242L38.3204 69.6091ZM51.2927 74.617L51.2938 74.6159C51.4265 74.4868 51.6246 74.4044 51.8489 74.3994L51.5505 74.6877L48.6722 77.4687L48.2848 77.843L48.2857 77.8437L48.2182 77.9089L45.3414 80.6917L44.9545 81.0661L45.4057 81.4323L70.4939 101.794L71.1367 102.316L71.2909 101.553L70.7963 101.421L71.2909 101.553L71.291 101.553L71.291 101.552L71.2914 101.55L71.2926 101.544L71.2974 101.52L71.3155 101.429C71.331 101.351 71.3532 101.238 71.3797 101.1C71.4328 100.823 71.5036 100.446 71.5745 100.042C71.7124 99.2544 71.8625 98.3003 71.8615 97.8276L71.8614 97.8266C71.8596 97.4078 71.6707 96.9434 71.4516 96.5625C71.4089 96.4882 71.3633 96.4141 71.3152 96.341C71.4315 96.3923 71.55 96.4394 71.668 96.4816C72.1092 96.6395 72.6181 96.7552 73.0468 96.723C73.5637 96.6842 74.6101 96.472 75.4883 96.2806C75.936 96.1831 76.3535 96.0878 76.659 96.017C76.8118 95.9815 76.9367 95.9522 77.0235 95.9317L77.1238 95.9079L77.1502 95.9016L77.157 95.8999L77.1588 95.8995L77.1593 95.8994L77.1594 95.8994L77.0057 95.4163L77.1595 95.8994L78.0888 95.6764L77.3082 95.0428L52.2194 74.6814L51.8716 74.3991C52.097 74.3993 52.3094 74.4777 52.4651 74.6047L52.4662 74.6056L77.8028 95.1699L78.1052 94.7964L77.8028 95.1699C77.998 95.3283 78.2386 95.6075 78.2792 96.0759C78.3375 96.7478 77.9672 97.569 77.4249 98.3553C76.8985 99.1185 76.2774 99.7542 75.9834 100.039C75.092 100.901 74.1134 101.598 73.2367 102.009C72.4356 102.385 71.839 102.466 71.4105 102.428C70.9883 102.391 70.6966 102.234 70.4969 102.072L45.1596 81.5075L45.159 81.507C44.8522 81.2586 44.8189 80.875 45.0822 80.6211L45.0828 80.6206L46.3686 79.3767L46.4984 79.2512L46.5055 79.066C46.5128 78.8792 46.4945 78.6892 46.4502 78.5022L46.5741 78.8251L47.0601 78.6432C47.0643 78.6417 47.0884 78.6329 47.1146 78.6206L47.1832 78.5884L47.237 78.5364L49.1357 76.7013L49.2158 76.6238L49.2484 76.5231L49.2508 76.5167C49.2525 76.512 49.2549 76.5051 49.2576 76.4969L49.4106 76.0243C49.4401 76.0246 49.4697 76.0245 49.4992 76.0238C49.5781 76.0222 49.6823 76.0073 49.7107 76.0032C49.7146 76.0026 49.7171 76.0023 49.7179 76.0022L49.8775 75.9839L49.9891 75.8761L51.2927 74.617ZM50.0516 78.0392L49.7926 77.8289L51.9746 75.7206L75.916 95.1508C75.6972 95.2005 75.4536 95.2549 75.2005 95.3101C74.2987 95.5066 73.3276 95.7002 72.895 95.7326L72.8948 95.7327C72.672 95.7494 72.3244 95.6859 71.9471 95.5509C71.5735 95.4173 71.2454 95.2403 71.0605 95.0903L71.0604 95.0902C68.3448 92.8872 62.915 88.4803 58.1641 84.6241L51.971 79.5972L50.0516 78.0392ZM70.5807 99.8016C70.5357 100.059 70.4906 100.305 70.4502 100.521L46.4618 81.0515L48.6427 78.9418L48.993 79.2261L50.9125 80.784L57.1057 85.8104L70.0019 96.2773L70.3044 95.9038L70.0019 96.2773C70.1851 96.4259 70.4068 96.6937 70.5836 97.0012C70.765 97.3164 70.8524 97.592 70.8535 97.7545C70.8543 98.1237 70.7239 98.9844 70.5807 99.8016Z" fill="#FDFAFA" stroke="black"/>
<path d="M90.3836 83.858C89.0818 83.8587 87.6287 84.178 86.0197 84.8648C93.7521 85.5915 89.5882 85.8048 86.0197 86.0095C81.4313 86.2726 87.677 89.2221 83.3664 86.5815C86.4334 94.2086 76.6208 84.8648 76.7804 86.0095C77.4694 90.9523 73.2072 88.5224 76.1118 90.6351L72.749 92.5202C73.5329 97.9068 74.2202 103.559 77.6287 103.97C75.3281 105.382 79.3644 106.686 77.0206 106.286C79.7662 108.725 76.1369 112.901 79.4682 111.036C77.4699 113.118 82.0331 112.895 80.9915 113.13L93.8143 116.874C105.338 117.896 119.786 97.1329 109.706 88.283C109.576 89.7937 101.407 82.6637 100.575 83.8581C99.5804 77.9562 95.0331 83.8556 90.3836 83.858ZM90.5354 89.7529L98.1432 92.7591C98.1586 92.5743 98.1895 92.3848 98.2372 92.1939C98.5396 90.985 99.3997 90.1815 100.158 90.3992C100.917 90.617 101.287 91.7735 100.985 92.9824C100.682 94.1913 99.8221 94.9948 99.0634 94.777C99.0244 94.7659 98.9866 94.7516 98.9497 94.7355L95.69 97.5826L99.4909 98.7114L91.9563 103.594L95.4996 99.6247L93.8143 99.2208L85.7248 106.286L94.2299 94.9376L86.837 92.5665L94.2093 92.8924L90.5354 89.7529Z" fill="#C32D2D"/>
<path d="M90.5354 89.7529L98.1432 92.7591C98.1586 92.5743 98.1895 92.3848 98.2372 92.1939C98.5396 90.985 99.3997 90.1815 100.158 90.3992C100.917 90.617 101.287 91.7735 100.985 92.9824C100.682 94.1913 99.8221 94.9948 99.0634 94.777C99.0244 94.7659 98.9866 94.7516 98.9497 94.7355L95.69 97.5826L99.4909 98.7114L91.9563 103.594L95.4996 99.6247L93.8143 99.2208L85.7248 106.286L94.2299 94.9376L86.837 92.5665L94.2093 92.8924L90.5354 89.7529Z" fill="#364D6D"/>
<path d="M103.085 126.926C104.473 126.376 105.905 125.491 107.37 124.225C98.859 126.863 96.0188 121.263 99.7492 119.584C104.546 117.425 104.009 121.197 109.571 121.638C103.512 116.408 109.829 114.553 116.803 119.352C114.261 115.415 112.945 114.138 109.076 113.555C97.4132 111.799 106.5 106.794 111.972 110.525C109.167 106.249 105.251 105.529 101.466 106.614C103.403 104.437 106.488 102.757 109.133 102.111C105.313 101.182 100.719 103.077 97.8488 106.077C99.2183 103.454 101.951 100.384 102.976 99.744L92.9845 103.693C81.0479 113.527 83.9329 122.362 90.539 125.973C90.1262 124.625 90.0739 123.303 90.5245 121.931C93.7429 126.56 98.1278 128.887 103.085 126.926ZM99.0309 117.886L89.8194 118.521C89.8706 118.686 89.907 118.861 89.9259 119.044C90.0455 120.206 89.4221 121.256 88.5334 121.389C87.6448 121.523 86.8276 120.689 86.708 119.528C86.5884 118.367 87.2117 117.317 88.1003 117.183C88.146 117.177 88.1915 117.173 88.2368 117.171L90.6717 113.362L86.2059 113.999L92.4548 106.647L90.128 111.535L92.0727 111.17L98.1151 101.718L93.1956 115.009L101.946 113.921L93.9655 116.749L99.0309 117.886Z" fill="#C32D2D"/>
<path d="M99.0309 117.886L89.8194 118.521C89.8706 118.686 89.907 118.861 89.9259 119.044C90.0455 120.206 89.4221 121.256 88.5334 121.389C87.6448 121.523 86.8276 120.689 86.708 119.528C86.5884 118.367 87.2117 117.317 88.1003 117.183C88.146 117.177 88.1915 117.173 88.2368 117.171L90.6717 113.362L86.2059 113.999L92.4548 106.647L90.128 111.535L92.0727 111.17L98.1151 101.718L93.1956 115.009L101.946 113.921L93.9655 116.749L99.0309 117.886Z" fill="#C32D2D"/>
<path d="M95.5449 63.7555C94.5265 63.3803 93.2826 63.2302 91.793 63.3452C97.5955 66.19 95.6113 71.9653 92.7516 71.1079C89.0746 70.0055 91.6219 67.4992 89.1399 64.0275C88.9702 71.3466 84.7257 69.1581 84.1818 61.644C83.0563 66.0124 82.9339 67.707 84.4942 70.3276C89.1963 78.2254 81.6769 76.8173 81.2295 70.9471C80.0288 75.7172 81.529 78.466 84.0563 79.7963C81.7818 80.323 79.2405 79.8314 77.5421 78.8177C78.868 81.6678 82.2858 82.8523 85.5192 82.2403C83.2553 83.4199 80.0474 84.1616 79.1535 84.0596L86.4814 86.7641C98.3308 86.186 102.251 77.9756 101.169 71.5542C100.558 72.7908 99.7845 73.8048 98.7315 74.5722C99.9411 69.3066 99.1819 65.0954 95.5449 63.7555ZM92.0795 72.7781L97.0171 77.5098C97.0913 77.3583 97.1793 77.2074 97.2809 77.0601C97.9245 76.1277 98.8677 75.6981 99.3877 76.1008C99.9078 76.5035 99.8076 77.5858 99.1641 78.5183C98.5205 79.4508 97.5773 79.8803 97.0573 79.4776C97.0305 79.4569 97.0058 79.434 96.9823 79.4098L93.4743 80.8705L96.0668 82.9198L88.5302 84.8638L92.6378 82.5382L91.4558 81.7111L82.7502 85.3362L93.2231 78.218L88.2398 74.084L93.8956 76.4868L92.0795 72.7781Z" fill="#C32D2D"/>
<path d="M92.0795 72.7781L97.0171 77.5098C97.0913 77.3583 97.1793 77.2074 97.2809 77.0601C97.9245 76.1277 98.8677 75.6981 99.3877 76.1008C99.9078 76.5035 99.8076 77.5858 99.1641 78.5183C98.5205 79.4508 97.5773 79.8803 97.0573 79.4776C97.0305 79.4569 97.0058 79.434 96.9823 79.4098L93.4743 80.8705L96.0668 82.9198L88.5302 84.8638L92.6378 82.5382L91.4558 81.7111L82.7502 85.3362L93.2231 78.218L88.2398 74.084L93.8956 76.4868L92.0795 72.7781Z" fill="#C32D2D"/>
<path d="M122.731 81.6878C122.558 80.4138 122.089 79.0262 121.283 77.5259C121.681 85.1722 115.922 86.2505 115.272 82.7802C114.435 78.3182 117.74 79.6197 119.448 75.1151C113.268 78.9426 113.066 73.2905 119.068 68.6075C114.891 69.8171 113.42 70.616 111.981 73.6876C107.644 82.9443 105.229 74.2827 109.907 70.6006C105.359 71.9511 103.785 75.0297 103.882 78.41C102.358 76.3114 101.555 73.3754 101.589 71.0382C99.8467 73.9895 100.491 78.2245 102.544 81.2828C100.481 79.5525 98.3315 76.592 97.99 75.5981L99.2336 84.7683C105.37 96.887 114.082 96.5072 118.917 91.8585C117.595 91.894 116.381 91.6367 115.239 90.9516C120.204 89.3393 123.351 86.2379 122.731 81.6878ZM113.559 82.9889L111.973 90.7601C112.135 90.7552 112.302 90.7649 112.474 90.7909C113.558 90.956 114.366 91.7108 114.278 92.4769C114.191 93.243 113.241 93.7302 112.157 93.5652C111.073 93.4001 110.265 92.6454 110.352 91.8793C110.357 91.8399 110.364 91.8014 110.373 91.7635L107.482 88.8815L107.011 92.7237L101.795 85.8784L105.693 88.9163L105.818 87.2232L98.6427 80.0712L109.572 87.1662L110.639 79.6741L111.336 86.9245L113.559 82.9889Z" fill="#C32D2D"/>
<path d="M113.559 82.9889L111.973 90.7601C112.135 90.7552 112.302 90.7649 112.474 90.7909C113.558 90.956 114.366 91.7108 114.278 92.4769C114.191 93.243 113.241 93.7302 112.157 93.5652C111.073 93.4001 110.265 92.6454 110.352 91.8793C110.357 91.8399 110.364 91.8014 110.373 91.7635L107.482 88.8815L107.011 92.7237L101.795 85.8784L105.693 88.9163L105.818 87.2232L98.6427 80.0712L109.572 87.1662L110.639 79.6741L111.336 86.9245L113.559 82.9889Z" fill="#C32D2D"/>
<path d="M97.3976 108.438C97.886 109.044 98.648 109.559 99.7187 109.96C97.3153 105.992 101.759 102.417 103.236 103.975C105.135 105.977 102.064 106.98 101.882 110.324C105.925 105.031 107.625 108.012 103.961 113.68C107.068 110.854 108.06 109.656 108.41 107.233C109.464 99.9307 113.801 103.407 110.954 107.843C114.327 104.748 114.786 102.251 113.788 100.456C115.612 100.811 117.069 101.998 117.675 103.291C118.307 100.777 116.628 98.7988 114.109 98.1936C116.276 98.0685 118.847 98.5706 119.397 98.9362L115.885 94.5746C107.549 91.1402 100.488 95.8642 97.7736 100.909C98.8512 100.204 99.9196 99.7148 101.045 99.4968C97.3993 102.951 95.6534 106.275 97.3976 108.438ZM104.587 102.973L103.783 97.908C103.651 97.9946 103.51 98.0762 103.362 98.1508C102.426 98.6227 101.557 98.6296 101.421 98.166C101.285 97.7025 101.933 96.9442 102.87 96.4723C103.806 96.0003 104.675 95.9934 104.811 96.4569C104.818 96.4808 104.823 96.5056 104.826 96.5309L107.986 96.6053L107.33 94.2639L113.478 95.2964L109.447 95.6589L109.804 96.6481L117.646 96.8325L106.732 98.6254L107.889 103.268L105.348 99.6717L104.587 102.973Z" fill="#C32D2D"/>
<path d="M104.587 102.973L103.783 97.908C103.651 97.9946 103.51 98.0762 103.362 98.1508C102.426 98.6227 101.557 98.6296 101.421 98.166C101.285 97.7025 101.933 96.9442 102.87 96.4723C103.806 96.0003 104.675 95.9934 104.811 96.4569C104.818 96.4808 104.823 96.5056 104.826 96.5309L107.986 96.6053L107.33 94.2639L113.478 95.2964L109.447 95.6589L109.804 96.6481L117.646 96.8325L106.732 98.6254L107.889 103.268L105.348 99.6717L104.587 102.973Z" fill="#C32D2D"/>
<path d="M72.5015 86.3194C70.7752 86.243 68.8349 86.3954 66.6723 86.8126C76.8954 87.8117 77.0873 92.8488 72.3466 92.7907C66.2512 92.7158 68.6869 90.1611 63.0818 87.9365C66.8282 93.8076 59.2912 92.9911 54.3725 87.1206C55.0784 90.8487 55.8216 92.2262 59.5845 93.9739C70.925 99.2411 58.9224 99.7627 55.0461 95.1814C55.8591 99.2461 59.6024 101.109 64.1049 101.617C60.995 102.534 56.9299 102.698 53.8386 102.261C57.3769 104.243 63.1301 104.44 67.626 103.245C64.8886 104.68 60.5016 105.973 59.1105 106.087L71.5355 106.641C88.9213 103.589 90.2901 96.1881 85.166 91.306C84.9289 92.4253 84.3268 93.4027 83.1731 94.2446C82.1025 89.783 78.6671 86.5924 72.5015 86.3194ZM72.2553 94.2688L82.2173 96.961C82.2455 96.824 82.2944 96.6844 82.3657 96.5448C82.8176 95.6609 83.9919 95.1123 84.9889 95.3196C85.9858 95.5269 86.4276 96.4115 85.9758 97.2954C85.524 98.1794 84.3498 98.728 83.3528 98.5207C83.3015 98.51 83.2521 98.4972 83.2038 98.483L78.7615 100.414L83.7543 101.481L73.5578 104.678L78.4232 101.926L76.2053 101.526L65.1813 106.318L76.9366 98.3549L67.2329 96.1492L76.9951 96.8279L72.2553 94.2688Z" fill="#C32D2D"/>
<path d="M72.2553 94.2688L82.2173 96.961C82.2455 96.824 82.2944 96.6844 82.3657 96.5448C82.8176 95.6609 83.9919 95.1123 84.9889 95.3196C85.9858 95.5269 86.4276 96.4115 85.9758 97.2954C85.524 98.1794 84.3498 98.728 83.3528 98.5207C83.3015 98.51 83.2521 98.4972 83.2038 98.483L78.7615 100.414L83.7543 101.481L73.5578 104.678L78.4232 101.926L76.2053 101.526L65.1813 106.318L76.9366 98.3549L67.2329 96.1492L76.9951 96.8279L72.2553 94.2688Z" fill="#C32D2D"/>
<path d="M79.6481 75.3231L80.017 75.0984L80.0078 74.6666C79.9757 73.1583 79.6533 71.6701 79.058 70.282L78.8535 69.8052L78.8722 69.7966L78.786 69.6477L78.7539 69.5729L78.745 69.577L78.4615 69.0873C77.8251 67.9881 77.0143 66.9981 76.0604 66.1553L75.6673 65.808L75.2062 66.0582C71.3695 68.1396 69.0926 72.4565 69.9292 77.0349L70.3929 79.5723L70.5589 79.1627L70.6191 79.2994C71.1826 80.5792 71.9995 81.7333 73.0209 82.6933L73.9136 83.5322L74.2549 82.3557C75.1041 79.4282 77.027 76.9194 79.6481 75.3231ZM85.0718 76.6194L85.5962 76.6827L85.594 76.7085L85.8145 76.709L85.8416 76.7123L85.8419 76.7091L86.4097 76.7103C87.6822 76.7129 88.947 76.5144 90.1566 76.1222L90.6752 75.954V75.4088C90.6752 75.403 90.6757 75.3925 90.679 75.3489L90.6794 75.3429C90.6821 75.3074 90.687 75.2437 90.687 75.1758C90.687 70.657 87.7815 66.8379 83.7395 65.4047L81.2812 64.533L81.5529 64.876L81.4275 64.8616C80.8107 64.7909 79.2495 64.6324 77.2565 65.2171L76.0618 65.5677L76.9303 66.4599C79.0667 68.6546 80.2968 71.5607 80.3808 74.6069L80.3927 75.0382L80.7716 75.2448C82.1036 75.9709 83.5633 76.4374 85.0718 76.6194ZM80.6301 75.5823L80.2546 75.3816L79.8898 75.6012C78.59 76.3835 77.4521 77.4045 76.5373 78.6098L76.2027 79.0507L76.1887 79.041L76.1145 79.1669L76.0638 79.2337L76.0718 79.2393L75.7796 79.7347C75.1393 80.8206 74.701 81.9999 74.4352 83.2268L74.3221 83.7487L74.7783 84.0263C76.6504 85.1654 78.8368 85.689 81.0259 85.523C83.2149 85.3571 85.296 84.51 86.9721 83.1015L88.9749 81.4185L88.5204 81.4828L88.6049 81.3707C89.4497 80.2485 90.0563 78.9676 90.3876 77.6055L90.6817 76.3963L89.4752 76.7011C88.4988 76.9477 87.4957 77.0757 86.488 77.0821C84.477 77.078 82.4714 76.5666 80.6301 75.5823Z" fill="#FDFAFA" stroke="black" stroke-width="1.5"/>
<path d="M86.6953 112.671C86.6245 112.397 85.569 108.487 82.4867 106.551C82.3167 106.351 81.5573 105.564 79.6371 104.855C78.3446 104.308 77.0761 104.013 76.9723 103.99C76.9715 103.99 76.9697 103.989 76.9688 103.989C76.854 103.962 74.6138 103.447 72.2507 104.048C72.0712 104.093 71.8967 104.149 71.7246 104.205L71.7237 104.202C69.9106 104.622 68.2527 105.531 67.3126 106.283C66.4787 106.95 65.6225 107.931 65.5618 108.005C64.4476 109.069 62.7812 112.626 63.0307 114.222C62.5197 115.433 63.1604 120.127 65.4351 122.506C67.5802 126.072 72.0309 126.998 72.3834 127.066C72.606 127.136 75.102 127.883 77.7096 127.22C77.819 127.193 78.4908 127.06 78.7266 127C81.5453 126.284 85.1568 123.273 85.5883 121.524C87.4905 119.19 87.4474 114.432 86.6953 112.671ZM71.1675 122.795C69.5368 121.307 68.2287 119.153 67.9382 118.656C68.141 118.046 69.1531 115.081 69.9264 114.07C70.5184 114.029 72.9899 113.855 75.3192 113.685C75.8027 114.321 77.9293 117.133 78.6284 118.249C78.373 118.795 77.3607 120.909 76.2629 122.642C74.6827 123.051 71.7316 122.84 71.1675 122.795ZM81.6101 106.826C81.6552 106.999 81.7908 107.62 81.696 108.397C81.0179 108.251 79.3455 107.994 77.2747 108.406C76.8363 108.037 75.2226 106.773 73.0743 106.158C73.1856 105.613 73.3648 104.936 73.5172 104.705C73.578 104.67 73.6759 104.627 73.8324 104.587C74.8161 104.337 76.6989 104.537 76.8631 104.555C77.0435 104.597 80.5665 105.434 81.6101 106.826ZM67.3933 118.407C65.9962 118.523 65.0862 118.318 64.8097 118.24C63.8028 116.603 63.6492 114.597 63.6315 114.308C63.8717 113.326 64.6297 110.786 65.4275 110.138C66.324 109.705 67.5795 109.64 68.0966 109.633C68.2299 110.261 68.642 112.006 69.4264 113.748C68.6143 114.848 67.6413 117.665 67.3933 118.407ZM71.7685 104.797C72.0737 104.743 72.531 104.696 72.8569 104.707C72.6706 105.174 72.5316 105.832 72.4694 106.155C71.8868 106.409 69.6919 107.434 68.2068 109.055C67.812 109.053 66.6296 109.08 65.6052 109.435C65.722 108.875 66.0046 108.411 66.0354 108.363C66.1504 108.225 68.3771 105.61 71.767 104.792L71.7685 104.797ZM83.4205 117.453C82.9597 117.55 81.1765 117.898 79.1238 117.944C78.3895 116.777 76.2705 113.977 75.7871 113.341C76.4953 111.364 77.2145 109.489 77.4148 108.969C79.6634 108.526 81.4479 108.923 81.7968 109.011C83.6662 110.709 84.547 112.704 84.6857 113.039C84.6076 115.292 83.6665 117.034 83.4205 117.453ZM63.625 117.113C63.7979 117.588 64.0245 118.077 64.3133 118.544C64.2774 118.907 64.2913 119.27 64.3415 119.623C64.0039 118.782 63.767 117.906 63.625 117.113ZM69.9659 125.077C70.392 124.373 70.9591 123.65 71.1806 123.374C71.8786 123.432 74.735 123.634 76.3959 123.212C76.7869 123.512 78.0503 124.442 79.4431 125.045C78.9335 125.902 78.0065 126.482 77.8417 126.581C74.7023 127.468 71.1154 126.507 69.9659 125.077ZM79.2662 126.213C79.5656 125.917 79.8614 125.552 80.0717 125.132C80.5568 124.935 82.6173 124.018 84.1661 122.11C84.2993 122.091 84.5171 122.053 84.753 121.986C83.9057 123.414 81.405 125.404 79.2662 126.213ZM84.3425 121.489C84.5245 119.512 84.1014 118.165 83.9412 117.74C84.2196 117.271 85.143 115.549 85.2677 113.257C85.6828 113.221 85.9691 113.255 86.1074 113.279C86.1941 113.421 86.3673 113.756 86.4824 114.301C86.7412 116.303 86.5434 119.451 85.101 121.187C84.9453 121.325 84.6303 121.426 84.3425 121.489Z" fill="black"/>
<path d="M71.1675 122.795C69.5368 121.307 68.2287 119.153 67.9382 118.656C68.141 118.046 69.1531 115.081 69.9264 114.07C70.5184 114.029 72.9899 113.855 75.3192 113.685C75.8027 114.321 77.9293 117.133 78.6284 118.249C78.373 118.795 77.3607 120.909 76.2629 122.642C74.6827 123.051 71.7316 122.84 71.1675 122.795Z" fill="#FDFAFA"/>
<path d="M83.4205 117.453C82.9597 117.55 81.1765 117.898 79.1238 117.944C78.3895 116.777 76.2705 113.977 75.7871 113.341C76.4953 111.364 77.2145 109.489 77.4148 108.969C79.6634 108.526 81.4479 108.923 81.7968 109.011C83.6662 110.709 84.547 112.704 84.6857 113.039C84.6076 115.292 83.6665 117.034 83.4205 117.453Z" fill="#FDFAFA"/>
<path d="M84.3425 121.489C84.5245 119.512 84.1014 118.165 83.9412 117.74C84.2196 117.271 85.143 115.549 85.2677 113.257C85.6828 113.221 85.9691 113.255 86.1074 113.279C86.1941 113.421 86.3673 113.756 86.4824 114.301C86.7412 116.303 86.5434 119.451 85.101 121.187C84.9453 121.325 84.6303 121.426 84.3425 121.489Z" fill="#FDFAFA"/>
<path d="M81.6101 106.826C81.6552 106.999 81.7908 107.62 81.696 108.397C81.0179 108.251 79.3455 107.994 77.2747 108.406C76.8363 108.037 75.2226 106.773 73.0743 106.158C73.1856 105.613 73.3648 104.936 73.5172 104.705C73.578 104.67 73.6759 104.627 73.8324 104.587C74.8161 104.337 76.6989 104.537 76.8631 104.555C77.0435 104.597 80.5665 105.434 81.6101 106.826Z" fill="#FDFAFA"/>
<path d="M69.9659 125.077C70.392 124.373 70.9591 123.65 71.1806 123.374C71.8786 123.432 74.735 123.634 76.3959 123.212C76.7869 123.512 78.0503 124.442 79.4431 125.045C78.9335 125.902 78.0065 126.482 77.8417 126.581C74.7023 127.468 71.1154 126.507 69.9659 125.077Z" fill="#FDFAFA"/>
<path d="M79.2662 126.213C79.5656 125.917 79.8614 125.552 80.0717 125.132C80.5568 124.935 82.6173 124.018 84.1661 122.11C84.2993 122.091 84.5171 122.053 84.753 121.986C83.9057 123.414 81.405 125.404 79.2662 126.213Z" fill="#FDFAFA"/>
<path d="M67.3933 118.407C65.9962 118.523 65.0862 118.318 64.8097 118.24C63.8028 116.603 63.6492 114.597 63.6315 114.308C63.8717 113.326 64.6297 110.786 65.4275 110.138C66.324 109.705 67.5795 109.64 68.0966 109.633C68.2299 110.261 68.642 112.006 69.4264 113.748C68.6143 114.848 67.6413 117.665 67.3933 118.407Z" fill="#FDFAFA"/>
<path d="M71.7685 104.797C72.0737 104.743 72.531 104.696 72.8569 104.707C72.6706 105.174 72.5316 105.832 72.4694 106.155C71.8868 106.409 69.6919 107.434 68.2068 109.055C67.812 109.053 66.6296 109.08 65.6052 109.435C65.722 108.875 66.0046 108.411 66.0354 108.363C66.1504 108.225 68.3771 105.61 71.767 104.792L71.7685 104.797Z" fill="#FDFAFA"/>
<path d="M54.346 93.9852L53.9985 94.1336L53.9976 94.1328L53.9917 94.1365L53.6618 94.2774L53.7019 94.317L53.6628 94.3413C53.4525 94.4723 53.253 94.62 53.0634 94.7824L52.6506 95.136L53.0373 95.5179L59.404 101.805L59.7817 102.178L60.1314 101.779C60.2954 101.592 60.445 101.395 60.5781 101.187L60.6086 101.139L60.6475 101.177L60.7862 100.861L60.7958 100.846L60.7937 100.844L60.9393 100.511C61.7339 98.697 61.3851 96.5099 59.8834 95.0268C58.3831 93.5451 56.1756 93.2042 54.346 93.9852Z" fill="#FDFAFA" stroke="black"/>
<path d="M52.0975 95.8874L52.0666 95.9356L52.028 95.8974L51.8921 96.2076L51.8788 96.2284L51.8818 96.2313L51.7362 96.5638C50.9417 98.3782 51.2898 100.566 52.7917 102.049C54.2921 103.53 56.4995 103.871 58.3296 103.089L58.6767 102.941L58.6777 102.942L58.6851 102.937L59.0143 102.797L58.9744 102.757L59.0124 102.734C59.223 102.603 59.4223 102.455 59.6116 102.293L60.0255 101.939L59.6382 101.557L53.2706 95.2692L52.8922 94.8956L52.5426 95.2962C52.3788 95.4838 52.2302 95.6804 52.0975 95.8874Z" fill="#FDFAFA" stroke="black"/>
<path d="M95.2839 116.684L95.1501 116.74L95.1364 116.726L95.0379 116.786L94.5742 116.977L94.6354 117.036C94.5516 117.094 94.4706 117.155 94.392 117.22L93.9591 117.579L94.3657 117.967L98.5802 121.991L98.9515 122.345L99.2961 121.965C99.3739 121.879 99.4474 121.79 99.5161 121.697L99.5707 121.749L99.7542 121.344L99.8389 121.215L99.8203 121.198L99.8616 121.107C100.421 119.873 100.173 118.387 99.123 117.385C98.0784 116.387 96.549 116.162 95.2839 116.684Z" fill="#FDFAFA" stroke="black"/>
<path d="M93.8099 117.835L93.7554 117.783L93.5739 118.183L93.4866 118.315L93.5059 118.334L93.4646 118.425C92.9057 119.659 93.1531 121.145 94.2029 122.147C95.2476 123.144 96.7769 123.369 98.0424 122.847L98.1758 122.792L98.1895 122.805L98.2891 122.745L98.7525 122.553L98.6914 122.495C98.7749 122.437 98.8556 122.376 98.9336 122.311L99.3677 121.953L98.9605 121.564L94.7453 117.54L94.3734 117.185L94.0289 117.567C93.9512 117.653 93.8781 117.742 93.8099 117.835Z" fill="#FDFAFA" stroke="black"/>
<path d="M111.827 103.747L110.932 103.87C109.183 104.111 107.48 104.791 106.03 105.933L105.364 106.457L105.35 106.443L105.281 106.523L105.125 106.646L105.152 106.672L104.663 107.239C103.462 108.628 102.74 110.268 102.485 111.962L102.36 112.789L102.338 112.789L102.344 112.901L102.307 113.145L102.356 113.144L102.392 113.825C102.497 115.832 103.248 117.813 104.663 119.45L105.152 120.016L105.124 120.043L105.286 120.17L105.35 120.244L105.364 120.231L106.031 120.756C107.737 122.097 109.791 122.806 111.863 122.905L112.612 122.941L112.611 122.979L112.816 122.951L112.888 122.954L112.889 122.941L113.786 122.818C115.535 122.577 117.237 121.897 118.687 120.755L119.353 120.231L119.368 120.245L119.436 120.165L119.593 120.042L119.565 120.016L120.055 119.449C121.256 118.06 121.977 116.42 122.233 114.726L122.357 113.896L122.38 113.896L122.374 113.787L122.411 113.541L122.361 113.542L122.325 112.864C122.22 110.856 121.47 108.875 120.055 107.238L119.565 106.672L119.592 106.646L119.436 106.523L119.367 106.444L119.353 106.458L118.688 105.933C116.98 104.587 114.925 103.882 112.855 103.783L112.103 103.747L112.104 103.709L111.901 103.737L111.828 103.734L111.827 103.747Z" fill="#FDFAFA" stroke="black" stroke-width="2"/>
<path d="M107.697 73.0842L107.712 73.0725L107.238 72.6851C106.3 71.9176 105.096 71.459 103.764 71.459C102.432 71.459 101.228 71.9176 100.29 72.6851L99.8164 73.0725L99.8308 73.0842L99.5493 73.4277C98.8343 74.3002 98.4062 75.3987 98.4062 76.5969C98.4062 77.7951 98.8343 78.8935 99.5493 79.7661L99.8308 80.1095L99.8164 80.1212L100.29 80.5086C101.228 81.2762 102.432 81.7348 103.764 81.7348C105.096 81.7348 106.3 81.2762 107.238 80.5086L107.712 80.1212L107.697 80.1095L107.979 79.7661C108.694 78.8935 109.122 77.7951 109.122 76.5969C109.122 75.3987 108.694 74.3002 107.979 73.4277L107.697 73.0842Z" fill="#FDFAFA" stroke="black"/>
</g>
<g filter="url(#filter3_d_684_2060)">
<path d="M49.111 60.1223C49.1208 60.108 49.1457 60.1175 49.1856 60.1509C49.2255 60.1842 49.2405 60.208 49.2307 60.2223L48.2817 61.6049C48.159 61.7836 47.6459 61.8831 46.7424 61.9036C45.8371 61.9114 44.6355 61.8401 43.1376 61.6898C43.0664 61.9002 42.9572 62.1126 42.8101 62.3269C42.7169 62.4627 42.5999 62.6179 42.4591 62.7926L44.8327 64.7773C45.0388 64.9496 45.2031 65.0532 45.3256 65.0882C45.4481 65.1232 45.5677 65.0938 45.6843 65.0001C45.8058 64.8993 45.9598 64.7131 46.1462 64.4416C46.1609 64.4202 46.1882 64.4261 46.2281 64.4595C46.268 64.4928 46.2806 64.5202 46.2658 64.5417C46.1138 64.7632 45.9903 64.9355 45.8954 65.0585L45.3778 65.7897L44.8875 66.5269C44.8058 66.6611 44.6841 66.846 44.5222 67.0818C44.5124 67.0961 44.4876 67.0866 44.4477 67.0532C44.4078 67.0199 44.3928 66.9961 44.4026 66.9818C44.5889 66.7102 44.7097 66.4963 44.7647 66.3399C44.8131 66.1779 44.8079 66.033 44.7492 65.9051C44.6904 65.7773 44.5613 65.63 44.3618 65.4632L39.7443 61.6023C39.5449 61.4355 39.3814 61.3382 39.254 61.3104C39.1315 61.2754 39.0095 61.3083 38.8879 61.4092C38.7647 61.4973 38.6099 61.6771 38.4235 61.9486C38.4088 61.9701 38.3815 61.9641 38.3416 61.9307C38.3017 61.8974 38.2891 61.87 38.3038 61.8486L38.6743 61.3317C38.8936 61.0427 39.067 60.8053 39.1945 60.6196C39.2828 60.491 39.3628 60.3667 39.4346 60.2468C39.5065 60.1269 39.5685 60.0213 39.6207 59.93C39.7577 59.6847 39.89 59.4692 40.0175 59.2834C40.4148 58.7046 40.831 58.3498 41.2662 58.2188C41.7014 58.0879 42.1152 58.1864 42.5074 58.5144C42.8266 58.7813 43.0604 59.1342 43.209 59.5734C43.3509 60.0069 43.3922 60.4575 43.3328 60.9252C44.5941 61.0239 45.6063 61.0661 46.3695 61.052C47.126 61.0323 47.721 60.9506 48.1544 60.8069C48.5813 60.6577 48.9001 60.4295 49.111 60.1223ZM42.2098 62.5841C42.359 62.4277 42.517 62.228 42.6837 61.9851C43.0221 61.4921 43.1685 61.0578 43.1228 60.6822C43.0705 60.3011 42.815 59.9187 42.3562 59.5351C41.3922 58.729 40.6109 58.7618 40.0126 59.6335C39.8802 59.8265 39.7962 59.9868 39.7608 60.1147C39.7236 60.2298 39.7402 60.3505 39.8105 60.4768C39.8742 60.5975 40.0157 60.7495 40.2351 60.933L42.2098 62.5841Z" fill="#364D6D"/>
<path d="M49.3682 50.255C48.7998 49.6238 48.2616 49.5869 47.7537 50.1441C47.7362 50.1633 47.71 50.1536 47.6752 50.115C47.6404 50.0763 47.6318 50.0474 47.6493 50.0282L48.0346 49.6247C48.2564 49.407 48.4286 49.2309 48.5512 49.0964C48.6504 48.9876 48.7877 48.8242 48.9629 48.6064L49.3221 48.1932C49.3337 48.1804 49.357 48.1933 49.3918 48.232C49.4266 48.2706 49.4381 48.2963 49.4265 48.3091C48.9594 48.8215 49.01 49.3933 49.5783 50.0244L52.0489 52.768C52.7159 53.5086 53.051 54.2932 53.0543 55.1217C53.0518 55.9438 52.7353 56.7007 52.1047 57.3924C51.6726 57.8663 51.209 58.1892 50.7139 58.3611C50.2245 58.5266 49.7357 58.538 49.2473 58.3952C48.759 58.2396 48.306 57.9299 47.8885 57.4662L45.1047 54.3749C44.9307 54.1817 44.7856 54.0592 44.6694 54.0075C44.5532 53.9558 44.428 53.9714 44.2939 54.0545C44.1599 54.1248 43.9819 54.2816 43.76 54.525C43.7483 54.5378 43.7251 54.5248 43.6903 54.4862C43.6555 54.4476 43.644 54.4218 43.6556 54.409L44.0935 53.9479C44.3503 53.6918 44.5546 53.4805 44.7064 53.314C44.8699 53.1346 45.0685 52.904 45.3021 52.6222L45.7138 52.1513C45.7313 52.1321 45.7574 52.1418 45.7922 52.1805C45.827 52.2191 45.8357 52.2481 45.8182 52.2673C45.6021 52.5042 45.459 52.6997 45.3887 52.8536C45.3184 53.0076 45.3092 53.152 45.3612 53.2871C45.4073 53.4157 45.5174 53.5766 45.6914 53.7698L48.1533 56.5036C48.8318 57.2572 49.5085 57.667 50.1833 57.7333C50.8582 57.7868 51.4759 57.5061 52.0364 56.8912C52.5619 56.3148 52.8082 55.6861 52.7753 55.0052C52.7367 54.3179 52.4274 53.6522 51.8475 53.0082L49.3682 50.255Z" fill="#364D6D"/>
<path d="M55.0606 48.1407C55.6146 47.7434 56.1664 47.5788 56.7162 47.6469C57.2676 47.7023 57.713 47.9762 58.0522 48.4687C58.3127 48.8469 58.4624 49.262 58.5012 49.7137C58.5399 50.1654 58.4681 50.6087 58.2856 51.0433C58.1048 51.4653 57.8285 51.8323 57.4567 52.1442C57.2376 52.3281 56.9912 52.5179 56.7175 52.7137C56.6197 52.7846 56.5052 52.8694 56.3742 52.9681C56.2431 53.0668 56.1012 53.1802 55.9485 53.3083L55.2787 53.8872C55.1641 53.9946 54.9972 54.1402 54.7781 54.3241C54.7649 54.3352 54.7435 54.3194 54.714 54.2765C54.6845 54.2337 54.6764 54.2067 54.6897 54.1956C54.9419 53.9839 55.1156 53.8101 55.2105 53.6741C55.3005 53.531 55.3343 53.39 55.312 53.2511C55.2896 53.1122 55.2047 52.9357 55.0572 52.7216L51.643 47.7646C51.4955 47.5505 51.3641 47.413 51.2488 47.352C51.1401 47.2855 51.0138 47.2846 50.8697 47.3492C50.7207 47.4066 50.5233 47.5384 50.2777 47.7445C50.2578 47.7612 50.2331 47.7481 50.2036 47.7053C50.1741 47.6625 50.1693 47.6327 50.1892 47.616L50.6846 47.2173C50.9732 46.9976 51.2039 46.8153 51.3765 46.6705C51.496 46.5702 51.6031 46.4747 51.6978 46.3841C51.7991 46.2878 51.8838 46.2054 51.9519 46.137C52.143 45.9429 52.3282 45.7707 52.5074 45.6203C53.0651 45.1523 53.5743 44.9334 54.0351 44.9636C54.4909 44.9865 54.8639 45.2086 55.1539 45.6297C55.3899 45.9723 55.4984 46.3655 55.4794 46.8095C55.4554 47.2462 55.3158 47.69 55.0606 48.1407ZM52.3989 45.9647C52.2263 46.1095 52.1067 46.2324 52.04 46.3334C51.98 46.4288 51.967 46.5467 52.0009 46.6872C52.0348 46.8277 52.1329 47.0157 52.2951 47.2512L53.6962 49.2854L54.1517 48.9201C54.6364 48.5135 54.9039 48.0806 54.9544 47.6215C55 47.1554 54.8704 46.701 54.5656 46.2585C54.2903 45.8588 53.9661 45.6239 53.5932 45.554C53.2219 45.4713 52.8238 45.6082 52.3989 45.9647ZM57.1746 52.0769C57.6593 51.6702 57.9268 51.2374 57.9773 50.7783C58.0295 50.3065 57.8835 49.8208 57.5394 49.3212C57.1658 48.7788 56.7141 48.4652 56.1842 48.3804C55.6611 48.29 55.1381 48.4585 54.6153 48.8859C54.3979 49.057 54.1505 49.2758 53.8732 49.5424L55.6946 52.1868C55.8224 52.3724 55.944 52.4956 56.0593 52.5565C56.1812 52.6119 56.3291 52.6061 56.5029 52.539C56.6785 52.4593 56.9024 52.3053 57.1746 52.0769Z" fill="#364D6D"/>
<path d="M62.7773 38.5762C62.7919 38.5669 62.8113 38.5852 62.8355 38.6312C62.8597 38.6773 62.8644 38.705 62.8498 38.7143C62.587 38.8825 62.375 39.1566 62.2137 39.5366C62.0484 39.9089 61.9527 40.3393 61.9264 40.8277L61.7046 44.1374L63.077 46.7498C63.2019 46.9877 63.3145 47.1463 63.4148 47.2257C63.515 47.3051 63.6372 47.3242 63.7815 47.2832C63.933 47.2375 64.1475 47.1258 64.4249 46.9483C64.4468 46.9343 64.4698 46.9503 64.494 46.9963C64.5182 47.0424 64.5193 47.0724 64.4974 47.0864C64.2711 47.2312 64.0939 47.3395 63.9658 47.4113L63.1933 47.8903L62.4438 48.3853C62.3164 48.477 62.1396 48.5953 61.9133 48.7401C61.8914 48.7541 61.8683 48.7381 61.8442 48.6921C61.82 48.6461 61.8188 48.616 61.8407 48.602C62.1181 48.4245 62.3088 48.2769 62.4127 48.1591C62.524 48.0366 62.5733 47.9077 62.5607 47.7722C62.5513 47.6245 62.4862 47.4355 62.3653 47.2053L61.0896 44.777L57.8027 43.1436C57.421 42.9369 57.1046 42.8266 56.8536 42.813C56.6026 42.7994 56.3566 42.8696 56.1157 43.0238C56.0938 43.0378 56.0708 43.0218 56.0466 42.9758C56.0224 42.9297 56.0213 42.8997 56.0432 42.8857C56.1308 42.8296 56.2662 42.7532 56.4494 42.6564L56.8387 42.4227C57.0869 42.2639 57.3968 42.0553 57.7683 41.797L58.3536 41.4071C58.3682 41.3978 58.3876 41.4161 58.4117 41.4622C58.4359 41.5082 58.4407 41.5359 58.4261 41.5452C58.0465 41.7882 57.8991 41.9902 57.9837 42.1513C58.028 42.2357 58.1149 42.3082 58.2443 42.3689L61.4341 43.9568L61.6394 40.9498C61.6589 40.5785 61.6203 40.3008 61.5236 40.1166C61.3785 39.8404 61.1088 39.8285 60.7146 40.0807C60.7 40.0901 60.6806 40.0717 60.6565 40.0257C60.6323 39.9797 60.6275 39.952 60.6421 39.9426L61.1628 39.6248C61.4482 39.4626 61.7077 39.3068 61.9413 39.1573C62.0654 39.0779 62.2111 38.9744 62.3782 38.847L62.7773 38.5762Z" fill="#364D6D"/>
<path d="M78.0359 41.1417C78.0522 41.1359 78.0677 41.1579 78.0825 41.2077C78.0972 41.2576 78.0964 41.2855 78.0801 41.2913L76.5022 41.8593C76.2984 41.9327 75.8107 41.7174 75.0393 41.2135C74.2736 40.6983 73.3033 39.9487 72.1284 38.9648C71.9498 39.0934 71.7383 39.2017 71.4936 39.2898C71.3387 39.3456 71.1528 39.4033 70.9358 39.463L71.8126 42.4302C71.8888 42.6878 71.9685 42.866 72.0518 42.9648C72.1351 43.0635 72.2522 43.1087 72.4031 43.1004C72.5622 43.0891 72.7967 43.0277 73.1065 42.9161C73.131 42.9073 73.1506 42.9279 73.1653 42.9777C73.1801 43.0276 73.1752 43.0569 73.1508 43.0657C72.898 43.1567 72.697 43.2245 72.5477 43.269L71.7 43.5604L70.872 43.8722C70.7277 43.9334 70.5209 44.0124 70.2518 44.1093C70.2355 44.1151 70.22 44.0931 70.2053 44.0433C70.1905 43.9934 70.1913 43.9655 70.2076 43.9596C70.5175 43.8481 70.7397 43.7451 70.8742 43.6507C71.0062 43.548 71.0836 43.4282 71.1063 43.2913C71.129 43.1544 71.1035 42.9613 71.0298 42.712L69.3241 36.9397C69.2504 36.6904 69.1678 36.5178 69.0764 36.422C68.9931 36.3232 68.8719 36.2795 68.7128 36.2908C68.5595 36.2908 68.3278 36.3466 68.018 36.4581C67.9935 36.4669 67.9739 36.4464 67.9592 36.3965C67.9444 36.3467 67.9493 36.3173 67.9738 36.3085L68.5768 36.1053C68.9242 35.9986 69.2039 35.9071 69.4159 35.8308C69.5627 35.7779 69.7001 35.7239 69.8281 35.6686C69.9561 35.6133 70.0678 35.5639 70.1632 35.5204C70.4168 35.4015 70.6496 35.3039 70.8616 35.2276C71.5221 34.9899 72.0723 34.9435 72.5121 35.0887C72.952 35.2338 73.2444 35.5515 73.3893 36.0419C73.5072 36.4408 73.5048 36.8601 73.382 37.2997C73.2569 37.731 73.0374 38.118 72.7237 38.4608C73.7288 39.2668 74.5562 39.8839 75.206 40.3121C75.8533 40.732 76.3998 41.0088 76.8453 41.1427C77.2884 41.2683 77.6853 41.2679 78.0359 41.1417ZM70.8437 39.1513C71.0574 39.1112 71.3029 39.0412 71.5801 38.9414C72.1428 38.7389 72.5108 38.4731 72.6842 38.144C72.8552 37.8066 72.8559 37.3511 72.6865 36.7776C72.3303 35.5725 71.6548 35.149 70.66 35.5071C70.4398 35.5863 70.2788 35.6673 70.1769 35.7499C70.0807 35.8214 70.0266 35.9282 70.0145 36.0705C70 36.2045 70.0332 36.4086 70.1143 36.6828L70.8437 39.1513Z" fill="#364D6D"/>
<path d="M81.827 40.9464C81.0353 41.0975 80.2999 41.0483 79.6207 40.7988C78.9488 40.5391 78.3929 40.1249 77.9531 39.5563C77.5204 38.9775 77.2451 38.3114 77.127 37.5579C76.9888 36.676 77.0921 35.8803 77.4368 35.1707C77.7802 34.4526 78.2719 33.8694 78.9118 33.4209C79.5602 32.9709 80.2462 32.6768 80.9698 32.5387C81.7785 32.3843 82.5195 32.4413 83.1929 32.7096C83.8648 32.9693 84.4115 33.3808 84.833 33.9441C85.2629 34.5058 85.5329 35.1376 85.6429 35.8397C85.765 36.6189 85.6727 37.3728 85.3661 38.1016C85.0594 38.8303 84.5909 39.4488 83.9603 39.9572C83.3383 40.4639 82.6272 40.7937 81.827 40.9464ZM82.2317 40.5914C82.8106 40.4809 83.3077 40.2405 83.7231 39.8702C84.1471 39.4983 84.4481 39.0131 84.6261 38.4148C84.8126 37.8148 84.8469 37.1381 84.7288 36.3846C84.6027 35.5798 84.3417 34.8932 83.9458 34.3251C83.5499 33.7569 83.052 33.3493 82.4522 33.1023C81.8608 32.8536 81.2034 32.7983 80.4798 32.9364C79.5433 33.1152 78.8589 33.5589 78.4263 34.2676C77.9938 34.9762 77.8607 35.8614 78.0271 36.9231C78.1532 37.728 78.4175 38.4359 78.8202 39.0469C79.2214 39.6493 79.7204 40.0919 80.3171 40.3749C80.9124 40.6492 81.5506 40.7214 82.2317 40.5914Z" fill="#364D6D"/>
<path d="M93.0189 31.8541C93.0363 31.8534 93.0457 31.8791 93.0474 31.9311C93.049 31.983 93.0412 32.0094 93.0239 32.01C92.7121 32.0221 92.3997 32.1512 92.0867 32.3975C91.7735 32.6351 91.4976 32.958 91.2591 33.3662L89.6034 36.1102L89.697 39.0597C89.7055 39.3282 89.7377 39.5221 89.7935 39.6414C89.8493 39.7607 89.9515 39.8391 90.1001 39.8767C90.2574 39.914 90.5006 39.9263 90.8297 39.9135C90.8556 39.9125 90.8695 39.938 90.8711 39.99C90.8728 40.042 90.8606 40.0685 90.8346 40.0695C90.5661 40.0799 90.3582 40.0836 90.2107 40.0806L89.3009 40.1028L88.405 40.1504C88.2494 40.1651 88.0374 40.1777 87.7689 40.188C87.7429 40.189 87.7291 40.1636 87.7275 40.1116C87.7258 40.0596 87.738 40.0331 87.764 40.0321C88.093 40.0194 88.3305 39.9885 88.4764 39.9395C88.6309 39.8902 88.7322 39.8039 88.7803 39.6806C88.8368 39.5483 88.8609 39.3522 88.8527 39.0924L88.7656 36.3507L86.509 33.2767C86.2544 32.905 86.0165 32.6497 85.7953 32.5108C85.5741 32.3719 85.3206 32.308 85.0349 32.319C85.0089 32.32 84.9951 32.2945 84.9934 32.2426C84.9918 32.1906 85.0039 32.1641 85.0299 32.1631C85.1338 32.1591 85.29 32.1617 85.4984 32.171L85.9535 32.1664C86.2479 32.155 86.62 32.132 87.0698 32.0972L87.7709 32.0571C87.7882 32.0564 87.7977 32.0821 87.7993 32.134C87.801 32.186 87.7931 32.2123 87.7758 32.213C87.3255 32.2304 87.1032 32.3301 87.109 32.512C87.112 32.6073 87.1587 32.7139 87.2492 32.8318L89.438 35.8174L90.9457 33.3263C91.1266 33.0157 91.2137 32.7565 91.2071 32.5486C91.1972 32.2368 90.9584 32.0899 90.4908 32.108C90.4735 32.1087 90.464 32.083 90.4623 32.031C90.4607 31.9791 90.4685 31.9527 90.4858 31.9521L91.0968 31.9415C91.4264 31.9461 91.7298 31.943 92.0069 31.9323C92.1542 31.9266 92.3314 31.911 92.5387 31.8857L93.0189 31.8541Z" fill="#364D6D"/>
<path d="M101.244 40.9408C101.279 40.9445 101.294 40.9722 101.289 41.024C101.285 41.0758 101.265 41.0999 101.231 41.0961C101.067 41.0785 100.814 41.0426 100.47 40.9882C100.127 40.9339 99.8781 40.8984 99.723 40.8817C99.5334 40.8613 99.2914 40.844 98.9969 40.8298C98.7196 40.8174 98.5077 40.8033 98.3612 40.7876C98.3267 40.7839 98.3118 40.7561 98.3164 40.7043C98.321 40.6525 98.3405 40.6285 98.375 40.6322C98.6938 40.6665 98.9291 40.6613 99.081 40.6166C99.2328 40.5719 99.3153 40.4762 99.3283 40.3294C99.339 40.2086 99.2994 40.017 99.2096 39.7546L98.0042 36.4221L95.5613 36.1594L94.2157 38.6815C94.069 38.9621 93.9873 39.1973 93.9705 39.3872C93.9253 39.8966 94.325 40.1967 95.1695 40.2875C95.2125 40.2921 95.2318 40.3203 95.2272 40.3721C95.2226 40.4239 95.1988 40.4475 95.1557 40.4429C95.0006 40.4262 94.7773 40.3935 94.4859 40.3447C94.1599 40.2922 93.8764 40.253 93.6351 40.227C93.411 40.203 93.1518 40.1838 92.8573 40.1695C92.5972 40.159 92.381 40.1445 92.2087 40.1259C92.1656 40.1213 92.1464 40.0931 92.1509 40.0413C92.1555 39.9895 92.1794 39.9659 92.2225 39.9706C92.4637 39.9965 92.6701 39.9751 92.8414 39.9064C93.0222 39.83 93.1957 39.6874 93.3621 39.4787C93.5379 39.2623 93.7354 38.948 93.9546 38.5358L97.2532 32.3804C97.2728 32.3563 97.3041 32.3466 97.3472 32.3512C97.3902 32.3559 97.4149 32.3716 97.4213 32.3984L99.9014 39.1622C100.138 39.8326 100.349 40.2911 100.536 40.5378C100.724 40.7759 100.96 40.9102 101.244 40.9408ZM95.7018 35.9L97.8991 36.1363L96.9538 33.5508L95.7018 35.9Z" fill="#364D6D"/>
<path d="M102.521 40.6945C102.47 40.9405 102.458 41.1251 102.485 41.2482C102.513 41.3713 102.589 41.471 102.715 41.5475C102.842 41.6155 103.057 41.6879 103.36 41.7645L104.733 42.1127C105.212 42.2341 105.625 42.1825 105.973 41.9579C106.32 41.7334 106.595 41.3698 106.796 40.8671C106.802 40.8417 106.825 40.8385 106.865 40.8576C106.915 40.8704 106.938 40.8895 106.932 40.915C106.71 41.6001 106.552 42.1717 106.456 42.6299C106.442 42.6978 106.419 42.7455 106.387 42.773C106.356 42.7921 106.303 42.792 106.227 42.7729L100.406 41.2972C100.389 41.2929 100.386 41.2653 100.396 41.2144C100.407 41.1635 100.421 41.1402 100.437 41.1444C100.757 41.2253 100.992 41.2627 101.144 41.2565C101.304 41.2524 101.421 41.1973 101.496 41.0913C101.573 40.9768 101.638 40.7923 101.691 40.5377L102.917 34.645C102.97 34.3904 102.984 34.1974 102.958 34.0658C102.933 33.9342 102.849 33.8281 102.706 33.7473C102.574 33.6602 102.348 33.5762 102.029 33.4953C102.012 33.491 102.009 33.4634 102.02 33.4125C102.03 33.3616 102.044 33.3383 102.061 33.3425L102.676 33.5118C103.025 33.6182 103.309 33.6991 103.527 33.7544C103.762 33.8141 104.058 33.8801 104.415 33.9526L105.022 34.0932C105.047 34.0996 105.055 34.1282 105.044 34.1791C105.033 34.23 105.016 34.2523 104.99 34.2459C104.68 34.1671 104.443 34.134 104.281 34.1466C104.13 34.1528 104.011 34.2121 103.926 34.3245C103.851 34.4305 103.787 34.6108 103.734 34.8653L102.521 40.6945Z" fill="#364D6D"/>
<path d="M110.019 37.3734C109.916 37.6954 109.903 38.0059 109.98 38.305C110.057 38.6041 110.179 38.8786 110.344 39.1285C110.512 39.3702 110.755 39.6918 111.071 40.0933C111.41 40.5126 111.668 40.8544 111.847 41.1188C112.026 41.3833 112.153 41.6831 112.228 42.0184C112.313 42.3485 112.296 42.6994 112.178 43.0709C112.051 43.4672 111.84 43.7887 111.543 44.0354C111.247 44.282 110.878 44.4265 110.438 44.4688C110.008 44.506 109.531 44.4226 109.006 44.2185C108.384 43.9767 107.861 43.6109 107.436 43.1209C107.403 43.0805 107.384 43.0406 107.379 43.0013C107.381 42.9651 107.389 42.9124 107.402 42.8432L107.782 41.0977C107.784 41.0615 107.807 41.0471 107.85 41.0546C107.901 41.0652 107.925 41.0885 107.923 41.1247C107.863 41.7694 107.937 42.3739 108.148 42.9383C108.366 43.5058 108.766 43.9026 109.348 44.1287C109.752 44.2857 110.127 44.3061 110.472 44.1899C110.829 44.0686 111.086 43.7603 111.244 43.2649C111.363 42.8933 111.385 42.5399 111.31 42.2047C111.236 41.8694 111.109 41.5696 110.93 41.3051C110.762 41.0356 110.518 40.7041 110.198 40.3108C109.887 39.9207 109.646 39.5949 109.475 39.3336C109.312 39.0755 109.196 38.7845 109.127 38.4606C109.058 38.1367 109.08 37.7973 109.193 37.4423C109.325 37.0294 109.542 36.7193 109.844 36.512C110.157 36.2996 110.506 36.1891 110.89 36.1806C111.285 36.167 111.676 36.2356 112.064 36.3863C112.54 36.5715 112.981 36.8543 113.386 37.2346C113.494 37.3229 113.533 37.4167 113.501 37.5158L113.131 38.973C113.121 39.006 113.095 39.0147 113.055 38.999C113.015 38.9833 112.996 38.9573 112.998 38.9212C113.07 38.4667 113.023 38.0029 112.856 37.5297C112.692 37.0483 112.344 36.7039 111.81 36.4967C111.358 36.3208 110.975 36.3252 110.662 36.5098C110.36 36.6892 110.145 36.9771 110.019 37.3734Z" fill="#364D6D"/>
<path d="M124.149 43.1749C124.496 43.4048 124.828 43.6713 125.144 43.9745C125.461 44.2777 125.689 44.5635 125.828 44.8318C125.876 44.9053 125.897 44.9659 125.891 45.0136C125.896 45.0584 125.88 45.1251 125.841 45.2136L125.264 46.5714C125.252 46.5942 125.226 46.5975 125.185 46.5812C125.149 46.5572 125.134 46.5314 125.139 46.5038C125.299 45.8123 125.237 45.1859 124.953 44.6245C124.68 44.0602 124.226 43.5674 123.59 43.1459C123.041 42.7819 122.49 42.5928 121.938 42.5786C121.389 42.5567 120.877 42.7038 120.4 43.0196C119.924 43.3354 119.519 43.7978 119.188 44.4068C118.803 45.1147 118.583 45.8603 118.531 46.6437C118.485 47.4318 118.602 48.1566 118.88 48.8181C119.167 49.4844 119.584 49.9995 120.133 50.3635C120.653 50.7084 121.185 50.8593 121.73 50.8163C122.278 50.7656 122.824 50.4953 123.366 50.0052C123.378 49.9824 123.399 49.9806 123.428 49.9997C123.449 50.0141 123.465 50.0299 123.475 50.0471C123.493 50.069 123.498 50.0876 123.489 50.1029L122.635 51.2925C122.571 51.3743 122.52 51.4232 122.482 51.4393C122.455 51.4525 122.401 51.4528 122.319 51.4402C121.511 51.2983 120.747 50.988 120.024 50.509C119.158 49.9342 118.531 49.2702 118.145 48.5169C117.77 47.7607 117.601 47.0062 117.637 46.2533C117.673 45.5004 117.864 44.808 118.208 44.1762C118.589 43.476 119.115 42.9701 119.786 42.6587C120.456 42.3473 121.178 42.2405 121.951 42.3384C122.723 42.4362 123.456 42.7151 124.149 43.1749Z" fill="#364D6D"/>
<path d="M124.677 52.8337C124.53 53.038 124.444 53.203 124.417 53.3287C124.391 53.4545 124.417 53.5806 124.496 53.707C124.58 53.8264 124.74 53.9888 124.975 54.194L126.042 55.1262C126.414 55.4511 126.8 55.5873 127.198 55.5346C127.597 55.4819 127.989 55.2686 128.374 54.8947C128.389 54.8735 128.41 54.8807 128.438 54.9163C128.477 54.9505 128.489 54.9782 128.474 54.9993C127.996 55.5326 127.621 55.9894 127.348 56.3697C127.308 56.4261 127.267 56.4598 127.228 56.4708C127.193 56.4749 127.146 56.4512 127.087 56.3999L122.564 52.4489C122.551 52.4375 122.56 52.4107 122.59 52.3684C122.62 52.3262 122.642 52.3107 122.655 52.3221C122.903 52.5388 123.095 52.678 123.231 52.7397C123.374 52.8071 123.5 52.8086 123.61 52.7442C123.725 52.6728 123.858 52.5314 124.01 52.3201L127.517 47.4286C127.669 47.2173 127.76 47.0452 127.792 46.9124C127.823 46.7796 127.793 46.6443 127.701 46.5064C127.62 46.3672 127.456 46.1893 127.208 45.9727C127.195 45.9613 127.203 45.9345 127.234 45.8922C127.264 45.8499 127.285 45.8345 127.299 45.8459L127.771 46.2755C128.035 46.5291 128.252 46.7299 128.421 46.8782C128.604 47.0378 128.838 47.2303 129.122 47.4557L129.599 47.8556C129.619 47.8727 129.614 47.9024 129.583 47.9447C129.553 47.9869 129.528 47.9995 129.509 47.9824C129.267 47.7714 129.072 47.6358 128.925 47.5754C128.788 47.5137 128.66 47.5157 128.538 47.5815C128.428 47.6459 128.298 47.7837 128.146 47.995L124.677 52.8337Z" fill="#364D6D"/>
<path d="M136.576 57.369C137.154 56.7467 137.193 56.1531 136.694 55.5881C136.677 55.5686 136.686 55.5398 136.721 55.5017C136.757 55.4636 136.783 55.4543 136.8 55.4738L137.162 55.9022C137.356 56.1487 137.514 56.3401 137.635 56.4765C137.732 56.5869 137.879 56.7397 138.074 56.9348L138.444 57.3344C138.456 57.3474 138.444 57.3729 138.409 57.411C138.373 57.4491 138.35 57.4617 138.338 57.4487C137.879 56.9292 137.361 56.9805 136.783 57.6028L134.27 60.3077C133.591 61.0379 132.877 61.4015 132.126 61.3986C131.381 61.3893 130.699 61.034 130.079 60.3326C129.655 59.852 129.367 59.3378 129.217 58.79C129.072 58.2487 129.067 57.7091 129.202 57.1712C129.348 56.6335 129.634 56.1361 130.059 55.6789L132.89 52.6311C133.067 52.4406 133.179 52.2815 133.228 52.1536C133.276 52.0258 133.263 51.8875 133.189 51.7389C133.127 51.5904 132.987 51.3927 132.769 51.1459C132.757 51.1329 132.769 51.1074 132.805 51.0693C132.84 51.0312 132.863 51.0186 132.875 51.0316L133.288 51.5185C133.517 51.804 133.706 52.0311 133.856 52.2C134.016 52.3818 134.223 52.6028 134.476 52.8628L134.898 53.3209C134.915 53.3404 134.906 53.3692 134.871 53.4073C134.835 53.4454 134.809 53.4547 134.792 53.4352C134.579 53.1949 134.404 53.0354 134.265 52.9565C134.126 52.8777 133.996 52.8665 133.873 52.9228C133.756 52.9727 133.609 53.0929 133.432 53.2834L130.928 55.9788C130.238 56.7217 129.859 57.4652 129.791 58.2094C129.736 58.9538 129.983 59.6377 130.534 60.2612C131.051 60.8457 131.617 61.1225 132.235 61.0916C132.858 61.0544 133.464 60.7183 134.054 60.0834L136.576 57.369Z" fill="#364D6D"/>
<path d="M138.23 63.704C138.573 64.3044 138.704 64.9064 138.622 65.5099C138.552 66.1151 138.286 66.6077 137.824 66.9876C137.47 67.2795 137.085 67.4504 136.671 67.5004C136.257 67.5505 135.855 67.4791 135.465 67.2864C135.086 67.0953 134.761 66.7987 134.489 66.3965C134.329 66.1595 134.164 65.8927 133.995 65.5961C133.934 65.49 133.861 65.366 133.775 65.224C133.69 65.0821 133.591 64.9285 133.48 64.7633L132.975 64.039C132.881 63.9152 132.754 63.7348 132.594 63.4978C132.584 63.4835 132.599 63.4598 132.639 63.4267C132.68 63.3937 132.705 63.3843 132.714 63.3987C132.899 63.6716 133.051 63.859 133.172 63.9607C133.299 64.057 133.427 64.0917 133.555 64.0649C133.682 64.038 133.846 63.942 134.047 63.7769L138.695 59.9528C138.896 59.7876 139.026 59.6414 139.086 59.514C139.151 59.3938 139.156 59.2553 139.102 59.0985C139.055 58.9362 138.942 58.7222 138.762 58.4564C138.748 58.4349 138.761 58.4076 138.801 58.3746C138.841 58.3415 138.868 58.3358 138.883 58.3573L139.229 58.8935C139.42 59.2061 139.578 59.4558 139.704 59.6426C139.791 59.7718 139.875 59.8876 139.954 59.9898C140.038 60.0992 140.111 60.1907 140.171 60.2642C140.341 60.4703 140.492 60.6703 140.623 60.8642C141.03 61.4675 141.212 62.0219 141.168 62.5273C141.131 63.0271 140.915 63.4395 140.52 63.7644C140.199 64.0287 139.836 64.1541 139.431 64.1407C139.033 64.1218 138.633 63.9762 138.23 63.704ZM140.312 60.7511C140.186 60.5644 140.078 60.4354 139.988 60.364C139.903 60.2998 139.796 60.2875 139.667 60.327C139.537 60.3665 139.362 60.4771 139.141 60.6588L137.234 62.2281L137.551 62.7211C137.905 63.2454 138.291 63.5314 138.708 63.579C139.132 63.6212 139.552 63.4716 139.967 63.1302C140.342 62.8218 140.568 62.4627 140.645 62.0529C140.733 61.6447 140.623 61.2108 140.312 60.7511ZM134.561 66.0863C134.915 66.6105 135.3 66.8965 135.718 66.9442C136.147 66.9935 136.596 66.8254 137.064 66.44C137.573 66.0215 137.875 65.5213 137.971 64.9393C138.073 64.3645 137.937 63.7943 137.566 63.2285C137.417 62.9932 137.226 62.7258 136.993 62.4263L134.513 64.4663C134.339 64.6095 134.222 64.7448 134.162 64.8721C134.107 65.0067 134.107 65.1686 134.162 65.358C134.229 65.549 134.362 65.7918 134.561 66.0863Z" fill="#364D6D"/>
</g>
<defs>
<filter id="filter0_d_684_2060" x="21.7842" y="24.7817" width="136.431" height="127.352" filterUnits="userSpaceOnUse" color-interpolation-filters="sRGB">
<feFlood flood-opacity="0" result="BackgroundImageFix"/>
<feColorMatrix in="SourceAlpha" type="matrix" values="0 0 0 0 0 0 0 0 0 0 0 0 0 0 0 0 0 0 127 0" result="hardAlpha"/>
<feOffset dy="4"/>
<feGaussianBlur stdDeviation="2"/>
<feComposite in2="hardAlpha" operator="out"/>
<feColorMatrix type="matrix" values="0 0 0 0 0 0 0 0 0 0 0 0 0 0 0 0 0 0 0.25 0"/>
<feBlend mode="normal" in2="BackgroundImageFix" result="effect1_dropShadow_684_2060"/>
<feBlend mode="normal" in="SourceGraphic" in2="effect1_dropShadow_684_2060" result="shape"/>
</filter>
<filter id="filter1_d_684_2060" x="65.6348" y="138.155" width="44.9141" height="19.6631" filterUnits="userSpaceOnUse" color-interpolation-filters="sRGB">
<feFlood flood-opacity="0" result="BackgroundImageFix"/>
<feColorMatrix in="SourceAlpha" type="matrix" values="0 0 0 0 0 0 0 0 0 0 0 0 0 0 0 0 0 0 127 0" result="hardAlpha"/>
<feOffset dy="4"/>
<feGaussianBlur stdDeviation="2"/>
<feComposite in2="hardAlpha" operator="out"/>
<feColorMatrix type="matrix" values="0 0 0 0 0 0 0 0 0 0 0 0 0 0 0 0 0 0 0.5 0"/>
<feBlend mode="normal" in2="BackgroundImageFix" result="effect1_dropShadow_684_2060"/>
<feBlend mode="normal" in="SourceGraphic" in2="effect1_dropShadow_684_2060" result="shape"/>
</filter>
<filter id="filter2_d_684_2060" x="35.501" y="61.644" width="117.627" height="73.9805" filterUnits="userSpaceOnUse" color-interpolation-filters="sRGB">
<feFlood flood-opacity="0" result="BackgroundImageFix"/>
<feColorMatrix in="SourceAlpha" type="matrix" values="0 0 0 0 0 0 0 0 0 0 0 0 0 0 0 0 0 0 127 0" result="hardAlpha"/>
<feOffset dx="4" dy="4"/>
<feGaussianBlur stdDeviation="2"/>
<feComposite in2="hardAlpha" operator="out"/>
<feColorMatrix type="matrix" values="0 0 0 0 0 0 0 0 0 0 0 0 0 0 0 0 0 0 0.25 0"/>
<feBlend mode="normal" in2="BackgroundImageFix" result="effect1_dropShadow_684_2060"/>
<feBlend mode="normal" in="SourceGraphic" in2="effect1_dropShadow_684_2060" result="shape"/>
</filter>
<filter id="filter3_d_684_2060" x="37.2441" y="30.7686" width="114.037" height="46.772" filterUnits="userSpaceOnUse" color-interpolation-filters="sRGB">
<feFlood flood-opacity="0" result="BackgroundImageFix"/>
<feColorMatrix in="SourceAlpha" type="matrix" values="0 0 0 0 0 0 0 0 0 0 0 0 0 0 0 0 0 0 127 0" result="hardAlpha"/>
<feOffset dx="4" dy="4"/>
<feGaussianBlur stdDeviation="2.5"/>
<feComposite in2="hardAlpha" operator="out"/>
<feColorMatrix type="matrix" values="0 0 0 0 0.4 0 0 0 0 0.407843 0 0 0 0 0.419608 0 0 0 1 0"/>
<feBlend mode="normal" in2="BackgroundImageFix" result="effect1_dropShadow_684_2060"/>
<feBlend mode="normal" in="SourceGraphic" in2="effect1_dropShadow_684_2060" result="shape"/>
</filter>
</defs>
</svg>
